<svg xmlns="http://www.w3.org/2000/svg" xmlns:xlink="http://www.w3.org/1999/xlink" viewBox="0 0 133.05 49.11"><defs><style>.cls-1{fill:#6440fb;}.cls-2{fill:url(#linear-gradient);}.cls-3{fill:url(#linear-gradient-2);}.cls-4{fill:url(#linear-gradient-3);}.cls-5{fill:url(#linear-gradient-4);}.cls-6{fill:url(#linear-gradient-5);}.cls-7{fill:url(#linear-gradient-6);}.cls-8{fill:url(#linear-gradient-7);}.cls-9{fill:url(#linear-gradient-8);}.cls-10{fill:url(#linear-gradient-9);}.cls-11{fill:url(#linear-gradient-10);}.cls-12{font-size:22.75px;}.cls-12,.cls-13{fill:#140342;font-family:Poppins-BoldItalic, Poppins;font-weight:700;font-style:italic;}.cls-13{font-size:17.93px;}</style><linearGradient id="linear-gradient" x1="25.96" y1="8.1" x2="43.34" y2="8.1" gradientUnits="userSpaceOnUse"><stop offset="0" stop-color="#6440fb"/><stop offset="1" stop-color="#fff" stop-opacity="0.4"/></linearGradient><linearGradient id="linear-gradient-2" x1="0.48" y1="13.24" x2="18.67" y2="13.24" xlink:href="#linear-gradient"/><linearGradient id="linear-gradient-3" x1="16.79" y1="34.24" x2="30.02" y2="34.24" gradientUnits="userSpaceOnUse"><stop offset="0" stop-color="#6440fb"/><stop offset="1" stop-color="#6440fb"/></linearGradient><linearGradient id="linear-gradient-4" x1="35.53" y1="31.53" x2="43.34" y2="31.53" xlink:href="#linear-gradient"/><linearGradient id="linear-gradient-5" x1="39.97" y1="6.84" x2="43.34" y2="6.84" gradientUnits="userSpaceOnUse"><stop offset="0" stop-color="#fff" stop-opacity="0"/><stop offset="1" stop-color="#6440fb"/></linearGradient><linearGradient id="linear-gradient-6" x1="8.89" y1="9.78" x2="18.67" y2="9.78" xlink:href="#linear-gradient"/><linearGradient id="linear-gradient-7" x1="16.79" y1="34.24" x2="30.02" y2="34.24" gradientUnits="userSpaceOnUse"><stop offset="0" stop-color="#fff" stop-opacity="0"/><stop offset="1" stop-color="#fff" stop-opacity="0.4"/></linearGradient><linearGradient id="linear-gradient-8" x1="35.53" y1="31.53" x2="43.34" y2="31.53" xlink:href="#linear-gradient-5"/><linearGradient id="linear-gradient-9" x1="0.48" y1="28.25" x2="54.31" y2="28.25" gradientUnits="userSpaceOnUse"><stop offset="0" stop-color="#6440fb"/><stop offset="0.4" stop-color="#6642fb" stop-opacity="0.99"/><stop offset="0.55" stop-color="#6d4bfb" stop-opacity="0.96"/><stop offset="0.66" stop-color="#7a5bfc" stop-opacity="0.92"/><stop offset="0.75" stop-color="#8c71fc" stop-opacity="0.85"/><stop offset="0.82" stop-color="#a38efd" stop-opacity="0.76"/><stop offset="0.89" stop-color="#c0b1fd" stop-opacity="0.64"/><stop offset="0.96" stop-color="#e1dafe" stop-opacity="0.52"/><stop offset="1" stop-color="#fff" stop-opacity="0.4"/></linearGradient><linearGradient id="linear-gradient-10" x1="0.48" y1="27.76" x2="49.8" y2="27.76" xlink:href="#linear-gradient"/></defs><g id="Layer_2" data-name="Layer 2"><g id="Objects"><path class="cls-1" d="M43.82,13.33V0H31.55L25.18,16.41A106,106,0,0,1,43.82,13.33Z"/><path class="cls-2" d="M31.87.48H43.34v12.4A106.66,106.66,0,0,0,26,15.72Z"/><path class="cls-1" d="M8.76,22.17v-6.1l2,5.22c2.8-1.2,5.67-2.26,8.57-3.19L12.27,0H0V26.85A77.92,77.92,0,0,1,8.76,22.17Z"/><path class="cls-3" d="M.48.48H11.94l6.73,17.33c-2.63.85-5.21,1.81-7.67,2.85L9.21,15.9l-.92.17v5.79A77.69,77.69,0,0,0,.48,26Z"/><path class="cls-1" d="M18.86,34c-.92.62-1.8,1.24-2.65,1.85l1.9,5H25.7l5.19-13.78A96.2,96.2,0,0,0,18.86,34Z"/><path class="cls-4" d="M18.44,40.42,16.79,36c.77-.55,1.55-1.1,2.33-1.62A96.49,96.49,0,0,1,30,28.07L25.37,40.42Z"/><path class="cls-1" d="M35.05,25.22V40.89h8.77V22Q39.33,23.42,35.05,25.22Z"/><path class="cls-5" d="M35.53,40.42V25.54c2.49-1.05,5.12-2,7.81-2.9V40.42Z"/><path class="cls-6" d="M40,.48V13.21c1.13-.13,2.26-.24,3.37-.33V.48Z"/><path class="cls-7" d="M15,19.07c1.2-.44,2.42-.86,3.65-1.26L11.94.48h-3Z"/><path class="cls-8" d="M19.12,34.41c-.78.52-1.56,1.07-2.33,1.62l.77,2A91.68,91.68,0,0,1,26.66,32L24,40.42h1.41L30,28.07A96.49,96.49,0,0,0,19.12,34.41Z"/><path class="cls-9" d="M35.53,25.54v1.91q2.17-1,4.44-1.83v14.8h3.37V22.64C40.65,23.52,38,24.49,35.53,25.54Z"/><path class="cls-1" d="M6.16,40.89C14.94,32.68,32,20.32,57.85,16.06,40.88,14,16.61,19,0,29.83V40.89Z"/><path class="cls-10" d="M.48,40.42V30.09c13.11-8.51,32.46-14,49.39-14,1.52,0,3,.05,4.44.14A99.7,99.7,0,0,0,6,40.42Z"/><path class="cls-11" d="M49.5,16.14l.3-.06c-16.91,0-36.22,5.51-49.32,14v9.34C13.23,28.39,32.05,19.39,49.5,16.14Z"/><text class="cls-12" transform="translate(65.31 20.78)">MAE</text><text class="cls-13" transform="translate(47.38 38.24)">TRAINING</text></g></g></svg>